<svg width="134" height="40" viewBox="0 0 134 40" fill="none" xmlns="http://www.w3.org/2000/svg">
<g id="Logo">
<path d="M4.07444 27.3147L11.2846 27.6176L14.4724 33.6833L26.9834 33.7774L21.3413 23.0418L1.6355 22.9842L0 19.8722L12.0186 0L26.4265 0.582156L23.0011 6.23039L15.5457 6.08148L9.19347 16.4462L21.4523 17.0102L31.6731 0.58998L35.1918 0.703936L45.2452 19.8333L38.112 32.8394L34.8309 26.5963L38.688 19.5508L33.3876 9.12682L26.5291 20.4274L35.3683 37.2464L33.3576 39.9829L10.7412 40L4.07444 27.3147Z" fill="#003F88"/>
<path d="M61.7814 28.7942C58.3048 28.7942 55.0231 27.5804 52.2937 25.12L54.6981 22.2331C56.8751 24.1358 59.0521 25.2184 61.8789 25.2184C64.3483 25.2184 65.9079 24.0702 65.9079 22.3315V22.2659C65.9079 20.6257 64.9981 19.7399 60.7742 18.7557C55.9328 17.5747 53.2035 16.1313 53.2035 11.8994V11.8338C53.2035 7.89712 56.4527 5.17426 60.9691 5.17426C64.2833 5.17426 66.9152 6.19123 69.2221 8.06115L67.0776 11.1121C65.0306 9.5702 62.9836 8.75006 60.9041 8.75006C58.5647 8.75006 57.2 9.96387 57.2 11.4729V11.5385C57.2 13.31 58.2398 14.0974 62.5937 15.1471C67.4026 16.3281 69.9044 18.0668 69.9044 21.8723V21.9379C69.9044 26.2354 66.5578 28.7942 61.7814 28.7942Z" fill="white"/>
<path d="M85.5542 28.827C79.6407 28.827 75.8716 25.3825 75.8716 18.7229V5.50232H79.8681V18.5589C79.8681 22.8236 82.0451 25.12 85.6192 25.12C89.1609 25.12 91.3378 22.9548 91.3378 18.7229V5.50232H95.3344V18.5261C95.3344 25.3825 91.5003 28.827 85.5542 28.827Z" fill="white"/>
<path d="M102.445 28.4662V5.50232H106.441V17.0499L117.261 5.50232H122.168L112.712 15.3768L122.59 28.4662H117.749L109.983 18.1324L106.441 21.8067V28.4662H102.445Z" fill="white"/>
<path d="M127.841 28.4662V5.50232H131.838V28.4662H127.841Z" fill="white"/>
<path d="M53.7325 38.8283C53.4638 38.8283 53.2224 38.7811 53.0082 38.6867C52.7979 38.5884 52.6324 38.4548 52.5117 38.2857C52.3909 38.1127 52.3286 37.9142 52.3247 37.69H52.8913C52.9108 37.8827 52.9887 38.0459 53.125 38.1795C53.2652 38.3093 53.4677 38.3742 53.7325 38.3742C53.9856 38.3742 54.1842 38.3113 54.3283 38.1854C54.4763 38.0557 54.5503 37.8906 54.5503 37.69C54.5503 37.5328 54.5074 37.405 54.4218 37.3067C54.3361 37.2084 54.229 37.1337 54.1005 37.0826C53.972 37.0315 53.7987 36.9764 53.5806 36.9175C53.3119 36.8467 53.0958 36.7759 52.9322 36.7051C52.7726 36.6344 52.6343 36.5243 52.5175 36.3749C52.4046 36.2215 52.3481 36.0171 52.3481 35.7615C52.3481 35.5374 52.4046 35.3389 52.5175 35.1659C52.6304 34.9929 52.7882 34.8592 52.9907 34.7648C53.197 34.6705 53.4326 34.6233 53.6974 34.6233C54.0791 34.6233 54.3906 34.7196 54.632 34.9123C54.8774 35.1049 55.0156 35.3605 55.0468 35.679H54.4627C54.4432 35.5217 54.3614 35.3841 54.2173 35.2661C54.0732 35.1442 53.8824 35.0833 53.6449 35.0833C53.4229 35.0833 53.2418 35.1423 53.1016 35.2602C52.9614 35.3742 52.8913 35.5354 52.8913 35.7438C52.8913 35.8932 52.9322 36.0151 53.014 36.1095C53.0997 36.2038 53.2029 36.2766 53.3236 36.3277C53.4482 36.3749 53.6215 36.4299 53.8435 36.4928C54.1122 36.5675 54.3283 36.6422 54.4919 36.7169C54.6554 36.7877 54.7956 36.8998 54.9124 37.0531C55.0293 37.2025 55.0877 37.407 55.0877 37.6665C55.0877 37.867 55.0351 38.0557 54.93 38.2326C54.8248 38.4095 54.669 38.5531 54.4627 38.6632C54.2563 38.7732 54.0129 38.8283 53.7325 38.8283Z" fill="white"/>
<path d="M58.8256 38.8283C58.4479 38.8283 58.1032 38.7398 57.7917 38.5629C57.4802 38.382 57.2329 38.1324 57.0498 37.8139C56.8707 37.4915 56.7811 37.1298 56.7811 36.7287C56.7811 36.3277 56.8707 35.9679 57.0498 35.6495C57.2329 35.3271 57.4802 35.0774 57.7917 34.9005C58.1032 34.7196 58.4479 34.6292 58.8256 34.6292C59.2072 34.6292 59.5538 34.7196 59.8653 34.9005C60.1769 35.0774 60.4222 35.3251 60.6013 35.6436C60.7805 35.962 60.87 36.3238 60.87 36.7287C60.87 37.1337 60.7805 37.4954 60.6013 37.8139C60.4222 38.1324 60.1769 38.382 59.8653 38.5629C59.5538 38.7398 59.2072 38.8283 58.8256 38.8283ZM58.8256 38.3624C59.1099 38.3624 59.3649 38.2955 59.5908 38.1618C59.8206 38.0282 59.9997 37.8375 60.1282 37.5898C60.2606 37.3421 60.3268 37.0551 60.3268 36.7287C60.3268 36.3985 60.2606 36.1114 60.1282 35.8677C59.9997 35.62 59.8225 35.4293 59.5966 35.2956C59.3708 35.1619 59.1138 35.0951 58.8256 35.0951C58.5374 35.0951 58.2804 35.1619 58.0545 35.2956C57.8287 35.4293 57.6495 35.62 57.5171 35.8677C57.3886 36.1114 57.3244 36.3985 57.3244 36.7287C57.3244 37.0551 57.3886 37.3421 57.5171 37.5898C57.6495 37.8375 57.8287 38.0282 58.0545 38.1618C58.2843 38.2955 58.5413 38.3624 58.8256 38.3624Z" fill="white"/>
<path d="M64.9831 34.6764V35.1128H63.2132V36.4987H64.6501V36.9351H63.2132V38.787H62.6816V34.6764H64.9831Z" fill="white"/>
<path d="M69.2408 34.6764V35.1128H68.131V38.787H67.5994V35.1128H66.4837V34.6764H69.2408Z" fill="white"/>
<path d="M76.1219 34.6764L74.942 38.787H74.3462L73.3999 35.4784L72.4186 38.787L71.8286 38.7929L70.6896 34.6764H71.2562L72.144 38.1618L73.1254 34.6764H73.7212L74.6558 38.1501L75.5495 34.6764H76.1219Z" fill="white"/>
<path d="M80.2201 37.8729H78.4444L78.1172 38.787H77.5565L79.0285 34.6999H79.6418L81.108 38.787H80.5472L80.2201 37.8729ZM80.0682 37.4364L79.3322 35.3605L78.5962 37.4364H80.0682Z" fill="white"/>
<path d="M85.0031 38.787L84.0335 37.1062H83.3909V38.787H82.8594V34.6764H84.1737C84.4813 34.6764 84.7403 34.7294 84.9506 34.8356C85.1647 34.9417 85.3244 35.0853 85.4295 35.2661C85.5347 35.447 85.5872 35.6534 85.5872 35.8854C85.5872 36.1685 85.5055 36.4181 85.3419 36.6344C85.1823 36.8506 84.9408 36.9941 84.6176 37.0649L85.6398 38.787H85.0031ZM83.3909 36.6757H84.1737C84.4618 36.6757 84.6779 36.6049 84.822 36.4633C84.9661 36.3179 85.0382 36.1252 85.0382 35.8854C85.0382 35.6416 84.9661 35.4529 84.822 35.3192C84.6818 35.1855 84.4657 35.1187 84.1737 35.1187H83.3909V36.6757Z" fill="white"/>
<path d="M88.0546 35.1128V36.4869H89.5383V36.9292H88.0546V38.3447H89.7135V38.787H87.523V34.6705H89.7135V35.1128H88.0546Z" fill="white"/>
<path d="M95.5857 38.8283C95.317 38.8283 95.0756 38.7811 94.8614 38.6867C94.6511 38.5884 94.4856 38.4548 94.3649 38.2857C94.2442 38.1127 94.1819 37.9142 94.178 37.69H94.7446C94.7641 37.8827 94.8419 38.0459 94.9782 38.1795C95.1184 38.3093 95.3209 38.3742 95.5857 38.3742C95.8389 38.3742 96.0375 38.3113 96.1816 38.1854C96.3295 38.0557 96.4035 37.8906 96.4035 37.69C96.4035 37.5328 96.3607 37.405 96.275 37.3067C96.1893 37.2084 96.0823 37.1337 95.9537 37.0826C95.8252 37.0315 95.6519 36.9764 95.4339 36.9175C95.1652 36.8467 94.949 36.7759 94.7855 36.7051C94.6258 36.6344 94.4876 36.5243 94.3708 36.3749C94.2578 36.2215 94.2014 36.0171 94.2014 35.7615C94.2014 35.5374 94.2578 35.3389 94.3708 35.1659C94.4837 34.9929 94.6414 34.8592 94.8439 34.7648C95.0503 34.6705 95.2859 34.6233 95.5507 34.6233C95.9323 34.6233 96.2439 34.7196 96.4853 34.9123C96.7306 35.1049 96.8689 35.3605 96.9 35.679H96.3159C96.2964 35.5217 96.2147 35.3841 96.0706 35.2661C95.9265 35.1442 95.7357 35.0833 95.4981 35.0833C95.2761 35.0833 95.0951 35.1423 94.9549 35.2602C94.8147 35.3742 94.7446 35.5354 94.7446 35.7438C94.7446 35.8932 94.7855 36.0151 94.8673 36.1095C94.9529 36.2038 95.0561 36.2766 95.1769 36.3277C95.3015 36.3749 95.4748 36.4299 95.6967 36.4928C95.9654 36.5675 96.1815 36.6422 96.3451 36.7169C96.5087 36.7877 96.6489 36.8998 96.7657 37.0531C96.8825 37.2025 96.9409 37.407 96.9409 37.6665C96.9409 37.867 96.8884 38.0557 96.7832 38.2326C96.6781 38.4095 96.5223 38.5531 96.3159 38.6632C96.1095 38.7732 95.8661 38.8283 95.5857 38.8283Z" fill="white"/>
<path d="M100.679 38.8283C100.301 38.8283 99.9565 38.7398 99.6449 38.5629C99.3334 38.382 99.0861 38.1324 98.9031 37.8139C98.724 37.4915 98.6344 37.1298 98.6344 36.7287C98.6344 36.3277 98.724 35.9679 98.9031 35.6495C99.0861 35.3271 99.3334 35.0774 99.6449 34.9005C99.9565 34.7196 100.301 34.6292 100.679 34.6292C101.06 34.6292 101.407 34.7196 101.719 34.9005C102.03 35.0774 102.275 35.3251 102.455 35.6436C102.634 35.962 102.723 36.3238 102.723 36.7287C102.723 37.1337 102.634 37.4954 102.455 37.8139C102.275 38.1324 102.03 38.382 101.719 38.5629C101.407 38.7398 101.06 38.8283 100.679 38.8283ZM100.679 38.3624C100.963 38.3624 101.218 38.2955 101.444 38.1618C101.674 38.0282 101.853 37.8375 101.981 37.5898C102.114 37.3421 102.18 37.0551 102.18 36.7287C102.18 36.3985 102.114 36.1114 101.981 35.8677C101.853 35.62 101.676 35.4293 101.45 35.2956C101.224 35.1619 100.967 35.0951 100.679 35.0951C100.391 35.0951 100.134 35.1619 99.9078 35.2956C99.6819 35.4293 99.5028 35.62 99.3704 35.8677C99.2419 36.1114 99.1776 36.3985 99.1776 36.7287C99.1776 37.0551 99.2419 37.3421 99.3704 37.5898C99.5028 37.8375 99.6819 38.0282 99.9078 38.1618C100.138 38.2955 100.395 38.3624 100.679 38.3624Z" fill="white"/>
<path d="M105.066 38.3506H106.492V38.787H104.535V34.6764H105.066V38.3506Z" fill="white"/>
<path d="M108.686 34.6764V37.2772C108.686 37.6429 108.774 37.9142 108.949 38.0911C109.128 38.268 109.375 38.3565 109.691 38.3565C110.002 38.3565 110.246 38.268 110.421 38.0911C110.6 37.9142 110.689 37.6429 110.689 37.2772V34.6764H111.221V37.2713C111.221 37.6134 111.153 37.9024 111.017 38.1383C110.88 38.3702 110.695 38.5432 110.462 38.6573C110.232 38.7713 109.973 38.8283 109.685 38.8283C109.397 38.8283 109.136 38.7713 108.902 38.6573C108.672 38.5432 108.489 38.3702 108.353 38.1383C108.221 37.9024 108.154 37.6134 108.154 37.2713V34.6764H108.686Z" fill="white"/>
<path d="M115.724 34.6764V35.1128H114.614V38.787H114.082V35.1128H112.966V34.6764H115.724Z" fill="white"/>
<path d="M118.019 34.6764V38.787H117.488V34.6764H118.019Z" fill="white"/>
<path d="M121.881 38.8283C121.503 38.8283 121.159 38.7398 120.847 38.5629C120.535 38.382 120.288 38.1324 120.105 37.8139C119.926 37.4915 119.836 37.1298 119.836 36.7287C119.836 36.3277 119.926 35.9679 120.105 35.6495C120.288 35.3271 120.535 35.0774 120.847 34.9005C121.159 34.7196 121.503 34.6292 121.881 34.6292C122.263 34.6292 122.609 34.7196 122.921 34.9005C123.232 35.0774 123.477 35.3251 123.657 35.6436C123.836 35.962 123.925 36.3238 123.925 36.7287C123.925 37.1337 123.836 37.4954 123.657 37.8139C123.477 38.1324 123.232 38.382 122.921 38.5629C122.609 38.7398 122.263 38.8283 121.881 38.8283ZM121.881 38.3624C122.165 38.3624 122.42 38.2955 122.646 38.1618C122.876 38.0282 123.055 37.8375 123.183 37.5898C123.316 37.3421 123.382 37.0551 123.382 36.7287C123.382 36.3985 123.316 36.1114 123.183 35.8677C123.055 35.62 122.878 35.4293 122.652 35.2956C122.426 35.1619 122.169 35.0951 121.881 35.0951C121.593 35.0951 121.336 35.1619 121.11 35.2956C120.884 35.4293 120.705 35.62 120.572 35.8677C120.444 36.1114 120.38 36.3985 120.38 36.7287C120.38 37.0551 120.444 37.3421 120.572 37.5898C120.705 37.8375 120.884 38.0282 121.11 38.1618C121.34 38.2955 121.597 38.3624 121.881 38.3624Z" fill="white"/>
<path d="M128.938 38.787H128.406L126.268 35.5138V38.787H125.737V34.6705H126.268L128.406 37.9377V34.6705H128.938V38.787Z" fill="white"/>
<path d="M132.245 38.8283C131.976 38.8283 131.735 38.7811 131.52 38.6867C131.31 38.5884 131.145 38.4548 131.024 38.2857C130.903 38.1127 130.841 37.9142 130.837 37.69H131.404C131.423 37.8827 131.501 38.0459 131.637 38.1795C131.778 38.3093 131.98 38.3742 132.245 38.3742C132.498 38.3742 132.697 38.3113 132.841 38.1854C132.989 38.0557 133.063 37.8906 133.063 37.69C133.063 37.5328 133.02 37.405 132.934 37.3067C132.848 37.2084 132.741 37.1337 132.613 37.0826C132.484 37.0315 132.311 36.9764 132.093 36.9175C131.824 36.8467 131.608 36.7759 131.445 36.7051C131.285 36.6344 131.147 36.5243 131.03 36.3749C130.917 36.2215 130.86 36.0171 130.86 35.7615C130.86 35.5374 130.917 35.3389 131.03 35.1659C131.143 34.9929 131.3 34.8592 131.503 34.7648C131.709 34.6705 131.945 34.6233 132.21 34.6233C132.591 34.6233 132.903 34.7196 133.144 34.9123C133.39 35.1049 133.528 35.3605 133.559 35.679H132.975C132.956 35.5217 132.874 35.3841 132.73 35.2661C132.586 35.1442 132.395 35.0833 132.157 35.0833C131.935 35.0833 131.754 35.1423 131.614 35.2602C131.474 35.3742 131.404 35.5354 131.404 35.7438C131.404 35.8932 131.445 36.0151 131.526 36.1095C131.612 36.2038 131.715 36.2766 131.836 36.3277C131.961 36.3749 132.134 36.4299 132.356 36.4928C132.624 36.5675 132.841 36.6422 133.004 36.7169C133.168 36.7877 133.308 36.8998 133.425 37.0531C133.542 37.2025 133.6 37.407 133.6 37.6665C133.6 37.867 133.547 38.0557 133.442 38.2326C133.337 38.4095 133.181 38.5531 132.975 38.6632C132.769 38.7732 132.525 38.8283 132.245 38.8283Z" fill="white"/>
</g>
</svg>
